<svg width="24" height="24" viewBox="0 0 24 24" fill="none" xmlns="http://www.w3.org/2000/svg">
<path d="M13.0366 2.52607C13.0277 2.47749 13.0209 2.42687 13.0175 2.37555C12.9682 1.66746 13.5012 1.0531 14.2099 1.00315C14.9187 0.953895 15.5331 1.48753 15.5823 2.19631C15.6316 2.9044 15.0987 3.51877 14.3899 3.56871C14.3454 3.57213 14.3009 3.57281 14.2572 3.57076C14.2284 3.57829 14.2113 3.58171 14.1867 3.6036C14.1142 3.71717 14.3721 3.69596 14.1963 4.19265C14.1963 4.19265 14.1949 4.24738 14.1757 4.30143C14.1621 4.49231 14.0889 5.05673 14.0779 5.35776C14.1149 5.40154 14.1258 5.42275 14.1217 5.52811C14.1053 5.6711 14.0724 6.02138 14.0198 6.24578C13.9753 6.43802 13.8966 6.47497 13.833 6.52218C13.744 6.92035 13.7208 7.25079 13.4923 7.73449C13.4718 8.10119 13.4458 8.20107 13.3691 8.38032C13.3602 8.92011 13.3979 9.00084 13.0332 9.85603C12.9388 10.2563 13.0284 10.5327 13.1276 10.9486C13.2289 11.3755 13.5107 11.5541 13.5532 11.9919C13.6517 13.0223 13.6271 13.7235 13.4061 14.5308L13.599 14.9878C13.8385 15.0973 14.4323 15.3976 14.1032 15.8731C14.5671 16.1167 15.2676 16.376 15.8457 16.8706C16.0784 17.0642 16.324 17.2756 16.5443 17.5233C16.9636 17.589 16.9192 17.6218 17.2305 17.8134C18.1452 18.3744 19.6113 19.4868 20.4617 20.2742C20.6081 20.3598 20.6676 20.4213 20.786 20.4836C20.8044 20.5192 20.8092 20.5274 20.8051 20.5369C20.7648 20.6396 20.7661 20.643 20.7292 20.7244C20.775 20.775 20.8605 20.8222 20.9119 20.8667C20.9598 20.8818 20.9598 20.8585 21.0418 20.8387C21.1486 20.9385 21.2806 21.0193 21.3285 21.0145C21.4735 20.9775 21.4482 21.0076 21.5707 20.8708C21.6145 20.8257 21.6884 20.8715 21.6884 20.8715C21.7342 20.8174 21.8327 20.71 21.9648 20.6327C22.0694 20.5705 22.2699 20.5643 22.2699 20.5643C22.3369 20.565 22.3246 20.6334 22.3185 20.656C22.2425 20.695 22.0818 20.7381 21.9921 20.8044C21.7958 21.0076 21.6418 21.2813 21.6418 21.2813C22.0373 21.2273 22.2802 21.3258 22.6099 21.2875C22.7898 21.2772 22.9226 21.2888 23.1107 21.152C23.1107 21.152 23.292 21.0227 23.4548 20.9543C23.6129 20.8852 23.7627 20.9221 23.9016 21.0234C23.9994 21.1342 24.0589 21.1349 23.9098 21.2909C23.8557 21.3518 23.7778 21.4195 23.6786 21.5173C23.5041 21.6897 23.2694 21.9196 23.0259 22.1098C22.7796 22.302 22.4998 22.4751 22.3253 22.5538C21.8847 22.8699 21.9887 22.7871 21.6425 23.1011C21.5987 23.1401 21.4831 23.2099 21.427 23.2475C21.2902 23.3372 21.2478 23.2626 21.1588 23.0984C21.1588 23.0984 21.1185 23.0368 21.0507 22.9062C20.9775 22.7632 20.9221 22.5997 20.9447 22.6024C20.8626 22.5921 20.4938 22.1591 20.4925 22.066C20.4145 22.0482 20.0813 21.726 20.0697 21.6644L19.7748 21.4277C19.4375 21.4982 19.3595 21.2881 18.4688 20.656C18.3668 20.6539 18.2102 20.5992 17.9844 20.4323C17.5821 20.11 16.6175 19.3814 16.4533 19.298C16.2774 19.2083 16.0674 19.1242 15.9388 19.0181C15.7459 18.9826 15.6405 18.9627 15.544 18.9354C15.4455 18.9087 15.3559 18.8738 15.1062 18.8403C14.6998 18.7896 14.2784 18.6213 13.8775 18.4209C13.6873 18.3306 13.5224 18.2847 13.3589 18.2149C12.9922 18.0603 12.6775 17.9208 12.4339 17.864C12.3409 17.8551 11.8989 17.7224 11.667 17.5869C11.5869 17.5452 11.5404 17.5062 11.487 17.4939C11.3653 17.4658 11.2873 17.5137 11.2325 17.5322C10.9349 17.6868 10.6565 17.8209 10.3992 17.9591C10.1598 18.087 9.9395 18.2204 9.70552 18.3545C9.4948 18.4763 9.25124 18.5912 9.00153 18.7103C9.00153 18.7103 8.28796 19.0681 7.898 19.207C7.56003 19.4827 6.86904 19.9602 6.44692 20.1969C6.23825 20.2961 5.83187 20.5534 5.6451 20.6108C5.53837 20.697 5.15798 20.9686 4.8597 21.1924C4.62982 21.3648 4.45536 21.5098 4.45536 21.5098C4.32196 21.6295 4.33085 21.6863 4.07635 21.5782C4.00588 21.6364 3.95115 21.6726 3.90599 21.7055C3.72264 21.8389 3.70691 21.8067 3.63986 21.8033C3.51192 21.9141 3.4955 21.8567 3.38399 21.9846C3.31078 22.0982 3.38536 22.0715 3.23074 22.1262C3.1979 22.1385 3.18285 22.1782 3.15754 22.2001C3.03302 22.3027 3.03234 22.5928 2.73405 22.6133C2.56096 22.7365 2.60543 22.8856 2.47339 22.8788C2.4816 23.0067 2.23941 23.1935 2.19631 23.1928C1.81592 23.3242 1.78924 23.0443 1.33223 23.253C1.27339 23.2797 1.1865 23.355 1.07225 23.3762C0.871112 23.4138 0.62824 23.3741 0.480464 23.2599C0.247169 23.0799 0.0330309 22.7337 0.0330309 22.7337C-0.0408571 22.5586 0.00224418 22.4478 0.233486 22.2822C0.329951 22.2206 0.347739 22.1748 0.509882 22.1639C0.589927 22.1337 0.568719 22.1803 0.711706 22.1283C0.795172 22.0982 0.795172 22.1194 0.962788 22.105C1.0011 22.079 1.05515 22.0701 1.12767 22.0462C1.26039 22.0024 1.3897 21.9538 1.3897 21.9538C1.3897 21.9538 1.42322 21.9196 1.55116 21.9319C1.65925 21.8875 1.77008 21.8225 1.82687 21.8019C1.8125 21.6309 1.83097 21.6391 1.91033 21.57C2.00885 21.4852 2.02664 21.4989 2.10053 21.5515C2.13131 21.5338 2.14636 21.5276 2.14294 21.5016C2.13063 21.4127 2.05469 21.3709 2.07727 21.1746C2.04306 21.0959 1.99312 20.9987 2.00406 20.9406C2.0198 20.8777 2.03553 20.8469 2.07384 20.827C2.11489 20.8051 2.12789 20.8346 2.14979 20.8592C2.18878 20.9043 2.22025 21.0391 2.22025 21.0391C2.23394 21.191 2.28114 21.3867 2.43097 21.2765C2.51922 21.1869 2.53633 20.9481 2.71694 20.9994L2.84556 21.1109C2.95434 21.0083 2.95982 21.0083 3.02549 20.9673C3.02549 20.9673 2.92356 20.864 3.01318 20.7832C3.07475 20.7285 3.14864 20.6895 3.28 20.5438C3.64123 20.1449 3.82663 19.9684 4.2166 19.6469C4.99516 19.0065 5.88181 18.557 6.44487 18.3333C6.62822 18.1 6.80678 17.9454 7.21453 17.9064C7.69891 17.0882 8.62661 16.3582 8.83939 16.2412C9.01247 15.9272 9.08773 15.9607 9.31487 15.8977C9.4948 15.7534 9.53516 15.7534 9.61589 15.6036C9.69389 15.293 9.43596 14.4638 10.0948 14.422C10.235 14.2243 10.2002 14.2715 10.3561 14.0847C10.2508 13.8241 10.207 13.6058 10.1783 13.4184C10.1728 13.3965 9.91623 13.2159 9.98944 12.9798C9.88066 12.8499 9.67678 12.5475 9.61316 12.4058C9.58374 12.4065 9.55979 12.3956 9.52764 12.3908C9.49411 12.3853 9.45306 12.3874 9.40654 12.3833C9.30392 12.648 9.19172 12.6679 9.00905 12.7267C8.68271 13.4218 8.56846 13.7153 7.64555 14.29C7.27953 14.6998 7.16254 15.1568 7.16391 15.15C7.10097 15.2854 7.12286 15.4749 7.15638 15.5762C7.10849 15.7267 7.1208 15.7418 7.1208 15.7418C7.14065 15.7985 7.19332 15.8738 7.25763 15.8895C7.36847 15.9189 7.4793 15.9142 7.47314 16.0373C7.45809 16.1919 7.25558 16.1666 7.1598 16.1495C6.79036 16.0907 6.90735 15.8505 6.67132 15.9306C6.4907 16.0489 6.42297 16.3979 6.12742 16.3527C6.08843 16.3267 6.10074 16.2508 6.12674 16.1953C6.16847 16.1091 6.24167 16.038 6.19789 16.0058C6.00633 16.066 5.62184 16.194 5.62184 16.194C5.44122 16.2432 5.24282 16.1529 5.4207 16.0346C5.50348 16.0024 5.62184 15.962 5.76756 15.869C5.76756 15.869 5.84282 15.7671 5.69846 15.8177C5.54111 15.8738 5.30918 15.9087 5.14293 15.8902C5.14293 15.8902 4.79812 15.8451 4.75365 15.8177C4.70918 15.7903 4.66813 15.6843 4.77623 15.6843C4.91306 15.6857 5.25513 15.6453 5.5199 15.5748C5.64783 15.5249 5.89139 15.3812 6.02822 15.3128C6.02822 15.3128 6.176 15.0973 6.25809 15.0542C6.39424 14.8975 6.50918 14.8052 6.62959 14.6451C6.74726 14.4022 6.86904 14.0177 7.259 13.4225C7.43893 13.1481 7.66333 12.8287 7.9452 12.5427C7.9452 12.5427 8.01841 12.085 8.38511 11.76C8.46584 11.5691 8.58899 11.3447 8.71008 11.1374C8.75729 11.0574 8.80176 10.9883 8.84691 10.9124C8.96048 10.7338 9.08021 10.4013 9.52285 10.3493C9.52285 10.3493 9.71236 10.209 9.78488 10.1098C9.89845 10.0127 9.87245 9.86219 9.96481 9.75546C9.82387 9.61795 9.46264 9.35865 9.42775 8.99879C9.39012 8.61704 9.52627 8.30301 9.75751 8.0704C10.0134 7.81453 10.2836 7.68659 10.6113 7.70575C11.0204 7.76664 11.0978 7.9021 11.2284 8.03619C11.3536 8.16345 11.4002 8.08135 11.4528 8.23049C11.7963 8.32149 11.7771 8.2818 11.7744 8.53425C11.8271 8.60541 11.9153 8.67177 11.9146 8.81886C12.0303 8.57941 12.0528 8.53562 12.3614 8.27154C12.4346 8.0574 12.4838 7.84669 12.5482 7.63255C12.6084 7.43483 12.6829 7.23095 12.7411 7.0777C12.6795 6.64464 12.8061 6.57349 12.9744 6.19378C12.9443 6.14179 12.9511 6.12674 12.9634 6.04122C13.0291 5.79014 13.131 5.45833 13.1919 5.24213C13.1919 5.24213 13.2118 5.15593 13.3007 5.14977C13.378 4.87612 13.493 4.36643 13.5128 4.26243C13.5922 3.97578 13.5409 3.8841 13.48 3.72264C13.4601 3.66996 13.4697 3.59471 13.4355 3.53587C13.3397 3.36894 13.2364 3.15206 13.1666 2.99676C13.1215 2.89824 13.0496 2.52607 13.0496 2.52607C12.9833 2.33587 13.0366 2.52607 13.0366 2.52607Z" fill="#101010"/>
</svg>
