<svg width="24" height="24" viewBox="0 0 24 24" fill="none" xmlns="http://www.w3.org/2000/svg">
<path d="M2.26936 3.07919C2.11516 3.10284 1.96691 3.66738 1.66889 3.96147C1.45095 4.17372 1.17889 4.16044 1.03438 4.42285C0.979517 4.52088 0.997289 4.68822 0.935035 4.84889C0.813452 5.17023 0.385015 5.19895 0.385015 5.54907C0.383525 5.92718 0.742314 5.99939 1.05289 6.26767C1.29531 6.48362 1.31905 6.63249 1.61255 6.73714C1.86316 6.82194 2.23599 6.54478 2.5718 6.64429C2.84758 6.72613 3.11144 6.78507 3.17375 7.06663C3.22855 7.32607 3.17002 7.72846 2.83571 7.68206C2.72301 7.66952 2.2345 7.50589 1.63409 7.56927C0.909813 7.65111 0.0832658 7.88616 0.00249471 8.68888C-0.0419879 9.13771 0.516174 9.66691 1.05513 9.55931C1.42796 9.4863 1.25157 9.04931 1.45467 8.83701C1.72077 8.56508 3.22855 9.78632 4.63034 9.78632C5.22043 9.78632 5.65924 9.63819 6.09518 9.18416C6.13588 9.14951 6.18558 9.07508 6.24858 9.07063C6.30791 9.07508 6.41167 9.13327 6.44577 9.15835C7.57476 10.0605 8.42797 11.8699 12.577 11.8913C13.1604 11.8942 13.8253 12.1714 14.3679 12.6637C14.852 13.1089 15.1352 13.8009 15.4101 14.5034C15.8253 15.5574 16.5696 16.5826 17.6977 17.7235C17.7593 17.7847 18.6881 18.5026 18.7622 18.5564C18.7741 18.5637 18.8423 18.7259 18.8186 18.8165C18.7912 19.5005 18.6911 21.4898 20.1826 21.5797C20.5473 21.5981 20.4516 21.3431 20.4516 21.1677C20.4509 20.8213 20.3871 20.4771 20.571 20.1226C20.8223 19.6347 20.038 19.4098 20.061 18.3551C20.0773 17.5687 19.4131 17.7028 19.0758 17.1036C18.8816 16.7565 18.7089 16.5723 18.7215 16.1477C18.7971 13.7583 18.21 12.1883 17.9172 11.8029C17.6889 11.5117 17.4999 11.396 17.7089 11.2611C18.9535 10.4438 19.236 9.6831 19.236 9.6831C19.8979 8.13608 20.4932 6.72312 21.3138 6.10113C21.4791 5.97283 21.9031 5.65816 22.1633 5.53431C22.929 5.17536 23.3323 4.95797 23.5547 4.74271C23.9068 4.40148 24.1848 3.69023 23.8475 3.25906C23.4279 2.7269 22.7022 3.14924 22.382 3.33789C20.0936 4.68822 19.7563 7.07028 18.9639 8.43827C18.3316 9.53127 17.3034 10.3339 16.3842 10.3995C15.6948 10.4504 14.9521 10.3118 14.2122 9.989C12.4131 9.2048 11.4287 8.19211 11.1967 8.01303C10.7133 7.64227 6.96094 3.97988 3.92091 3.83027C3.92091 3.83027 3.54365 3.07924 3.44873 3.06671C3.22632 3.03867 2.99879 3.51554 2.83571 3.57088C2.68225 3.62167 2.4243 3.05411 2.26936 3.07919Z" fill="#101010"/>
</svg>
