<svg width="24" height="24" viewBox="0 0 24 24" fill="none" xmlns="http://www.w3.org/2000/svg">
<path fill-rule="evenodd" clip-rule="evenodd" d="M11.695 10.603L14.3388 12.3129L18.559 10.6566C19.9833 10.1758 21.8137 9.64129 24 9C18.6104 9.48107 14.5425 9.96174 11.695 10.603ZM9.66118 12.4199L7.32208 11.7786C6.00005 12.1528 4.72885 12.7403 3.55948 13.4886C2.38974 14.2364 1.47469 15.0917 0.864411 16H4.83068C5.13582 15.5189 5.64427 14.9845 6.30519 14.4502C7.27106 13.5955 8.38998 12.9542 9.66118 12.4199ZM12.4579 13.4348L10.4748 12.7401C10.017 12.9542 9.45788 13.2212 8.79658 13.7019C7.88135 14.3432 7.06776 15.1447 6.35601 16H10.0678C10.5762 15.1447 11.3898 14.29 12.4579 13.4348ZM7.93236 9H0L7.93217 11.2443C11.4406 12.3661 14.6948 13.6489 17.6954 14.9845L7.93236 9Z" fill="#101010"/>
</svg>
