<svg width="20" height="21" viewBox="0 0 20 21" fill="none" xmlns="http://www.w3.org/2000/svg">
<path d="M18.3335 5.91602H13.3335" stroke="white" stroke-width="1.5" stroke-miterlimit="10" stroke-linecap="round" stroke-linejoin="round"/>
<path d="M4.99984 5.91602H1.6665" stroke="white" stroke-width="1.5" stroke-miterlimit="10" stroke-linecap="round" stroke-linejoin="round"/>
<path d="M8.33317 8.83333C9.944 8.83333 11.2498 7.5275 11.2498 5.91667C11.2498 4.30584 9.944 3 8.33317 3C6.72234 3 5.4165 4.30584 5.4165 5.91667C5.4165 7.5275 6.72234 8.83333 8.33317 8.83333Z" stroke="white" stroke-width="1.5" stroke-miterlimit="10" stroke-linecap="round" stroke-linejoin="round"/>
<path d="M18.3333 15.084H15" stroke="white" stroke-width="1.5" stroke-miterlimit="10" stroke-linecap="round" stroke-linejoin="round"/>
<path d="M6.6665 15.084H1.6665" stroke="white" stroke-width="1.5" stroke-miterlimit="10" stroke-linecap="round" stroke-linejoin="round"/>
<path d="M11.6667 17.9993C13.2775 17.9993 14.5833 16.6935 14.5833 15.0827C14.5833 13.4719 13.2775 12.166 11.6667 12.166C10.0558 12.166 8.75 13.4719 8.75 15.0827C8.75 16.6935 10.0558 17.9993 11.6667 17.9993Z" stroke="white" stroke-width="1.5" stroke-miterlimit="10" stroke-linecap="round" stroke-linejoin="round"/>
</svg>
